<?xml version="1.0" encoding="UTF-8" standalone="no"?>
<svg  viewBox="0 0 70 88" version="1.1" xmlns="http://www.w3.org/2000/svg" xmlns:xlink="http://www.w3.org/1999/xlink">
    <!-- Generator: Sketch 39.1 (31720) - http://www.bohemiancoding.com/sketch -->
  
    <defs></defs>
    <g id="Page-1" stroke="none" stroke-width="1" fill="none" fill-rule="evenodd">
        <g id="Desktop-HD" transform="translate(-836.000000, -406.000000)">
            <g id="logo-3" transform="translate(836.000000, 406.000000)">
                <path d="M58.48381,50.0057206 C58.77571,48.5243873 58.93041,46.9941651 58.93041,45.4290222 C58.93041,41.5123238 57.97141,37.814927 56.27741,34.5568317 C57.97141,31.2994349 58.93041,27.6020381 58.93041,23.6853397 C58.93041,22.1194984 58.77571,20.5899746 58.48381,19.1086413 C63.02191,22.7403873 65.93531,28.314419 65.93531,34.5568317 C65.93531,40.7999429 63.02191,46.3732762 58.48381,50.0057206 L58.48381,50.0057206 Z M35.19131,65.2311175 C28.93401,65.2311175 23.34801,62.3243238 19.70731,57.7965143 C21.19201,58.0877524 22.72571,58.2421016 24.29441,58.2421016 C28.22071,58.2421016 31.92581,57.2852762 35.19131,55.5951175 C38.45681,57.2852762 42.16191,58.2421016 46.08821,58.2421016 C47.65691,58.2421016 49.19061,58.0877524 50.67531,57.7965143 C47.03461,62.3243238 41.44861,65.2311175 35.19131,65.2311175 L35.19131,65.2311175 Z M4.44731,34.5568317 C4.44731,28.314419 7.36071,22.7403873 11.89881,19.1086413 C11.60691,20.5899746 11.45221,22.1194984 11.45221,23.6853397 C11.45221,27.6020381 12.41121,31.2994349 14.10521,34.5568317 C12.41121,37.814927 11.45221,41.5123238 11.45221,45.4290222 C11.45221,46.9941651 11.60691,48.5243873 11.89881,50.0057206 C7.36071,46.3732762 4.44731,40.7999429 4.44731,34.5568317 L4.44731,34.5568317 Z M47.58691,39.1335302 C47.87881,37.6521968 48.03351,36.122673 48.03351,34.5568317 C48.03351,32.9916889 47.87881,31.4614667 47.58761,29.9801333 C49.20811,31.2777841 50.62071,32.8219746 51.76801,34.5568317 C50.62071,36.2923873 49.20811,37.8365778 47.58691,39.1335302 L47.58691,39.1335302 Z M30.60421,46.9250222 C32.08891,47.2162603 33.62261,47.3706095 35.19131,47.3706095 C36.76001,47.3706095 38.29371,47.2162603 39.77841,46.9250222 C38.47851,48.5418476 36.93081,49.9519429 35.19131,51.0959429 C33.45181,49.9519429 31.90411,48.5418476 30.60421,46.9250222 L30.60421,46.9250222 Z M22.79571,29.9801333 C22.50311,31.4614667 22.34911,32.9916889 22.34911,34.5568317 C22.34911,36.122673 22.50311,37.6521968 22.79571,39.1335302 C21.17451,37.8365778 19.76191,36.2923873 18.61461,34.5568317 C19.76191,32.8219746 21.17451,31.2777841 22.79571,29.9801333 L22.79571,29.9801333 Z M44.14221,34.5568317 C44.14221,37.1975302 43.61721,39.7167048 42.67291,42.0221651 C40.36221,42.9643238 37.83731,43.4874349 35.19131,43.4874349 C32.54531,43.4874349 30.02041,42.9643238 27.70971,42.0221651 C26.76541,39.7167048 26.24041,37.1975302 26.24041,34.5568317 C26.24041,31.9168317 26.76541,29.3976571 27.70971,27.0921968 C30.02041,26.1500381 32.54531,25.626927 35.19131,25.626927 C37.83731,25.626927 40.36221,26.1500381 42.67291,27.0921968 C43.61721,29.3976571 44.14221,31.9168317 44.14221,34.5568317 L44.14221,34.5568317 Z M39.77841,22.1893397 C38.29371,21.8981016 36.76001,21.7437524 35.19131,21.7437524 C33.62261,21.7437524 32.08891,21.8981016 30.60421,22.1893397 C31.90411,20.5718159 33.45181,19.162419 35.19131,18.0177206 C36.93081,19.162419 38.47851,20.5718159 39.77841,22.1893397 L39.77841,22.1893397 Z M15.34421,23.6853397 C15.34421,21.0446413 15.86851,18.5254667 16.81281,16.2200063 C19.12351,15.278546 21.64841,14.7547365 24.29441,14.7547365 C26.76331,14.7547365 29.12651,15.2108 31.30911,16.0363238 C28.57001,18.2160698 26.32371,20.9873714 24.76481,24.154673 C21.59101,25.7093397 18.81341,27.950546 16.62801,30.6834349 C15.80061,28.5064825 15.34421,26.1486413 15.34421,23.6853397 L15.34421,23.6853397 Z M15.34421,45.4290222 C15.34421,42.9657206 15.80061,40.6078794 16.62801,38.430927 C18.81341,41.1638159 21.59101,43.4050222 24.76481,44.9596889 C26.32371,48.1269905 28.57001,50.8975937 31.30911,53.0780381 C29.12651,53.9035619 26.76331,54.3596254 24.29441,54.3596254 C21.64841,54.3596254 19.12351,53.8358159 16.81281,52.8936571 C15.86851,50.5881968 15.34421,48.0690222 15.34421,45.4290222 L15.34421,45.4290222 Z M55.03841,45.4290222 C55.03841,48.0690222 54.51411,50.5881968 53.56981,52.8936571 C51.25911,53.8358159 48.73421,54.3596254 46.08821,54.3596254 C43.61931,54.3596254 41.25611,53.9035619 39.07351,53.0780381 C41.81261,50.8975937 44.05891,48.1269905 45.61781,44.9596889 C48.79161,43.4050222 51.56921,41.1638159 53.75461,38.430927 C54.58201,40.6078794 55.03841,42.9657206 55.03841,45.4290222 L55.03841,45.4290222 Z M55.03841,23.6853397 C55.03841,26.1486413 54.58201,28.5064825 53.75461,30.6834349 C51.56921,27.950546 48.79161,25.7093397 45.61781,24.154673 C44.05891,20.9873714 41.81261,18.2160698 39.07351,16.0363238 C41.25611,15.2108 43.61931,14.7547365 46.08821,14.7547365 C48.73421,14.7547365 51.25911,15.278546 53.56981,16.2200063 C54.51411,18.5254667 55.03841,21.0446413 55.03841,23.6853397 L55.03841,23.6853397 Z M35.19131,3.88324444 C41.44861,3.88324444 47.03461,6.78933968 50.67531,11.3171492 C49.19061,11.0259111 47.65691,10.8722603 46.08821,10.8722603 C42.16191,10.8722603 38.45681,11.8283873 35.19131,13.5192444 C31.92581,11.8283873 28.22071,10.8722603 24.29441,10.8722603 C22.72571,10.8722603 21.19201,11.0259111 19.70731,11.3171492 C23.34801,6.78933968 28.93401,3.88324444 35.19131,3.88324444 L35.19131,3.88324444 Z M69.82661,34.5568317 C69.82661,25.2274349 64.39111,17.1412127 56.51401,13.2824825 C52.64721,5.42324444 44.54261,6.98412697e-05 35.19131,6.98412697e-05 C25.84001,6.98412697e-05 17.73541,5.42324444 13.86861,13.2824825 C5.99151,17.1412127 0.55601,25.2274349 0.55601,34.5568317 C0.55601,43.886927 5.99151,51.9731492 13.86861,55.8318794 C17.73541,63.6911175 25.84001,69.1142921 35.19131,69.1142921 C44.54261,69.1142921 52.64721,63.6911175 56.51401,55.8318794 C64.39111,51.9731492 69.82661,43.886927 69.82661,34.5568317 L69.82661,34.5568317 Z" id="Fill-1" fill="#313048"></path>
            </g>
        </g>
    </g>
</svg>